# Blender 3.4.1
# www.blender.org
mtllib Cage.mtl
o Cylinder
v -3.269716 1.051810 -1.523763
v 3.269716 1.051811 -1.523763
v 3.048569 1.051811 -1.373117
v -3.269716 -0.267807 -0.761881
v 3.269716 -0.267807 -0.761881
v 3.048569 -0.137344 -0.686559
v -3.269716 -0.267807 0.761881
v 3.269716 -0.267807 0.761881
v 3.048569 -0.137344 0.686559
v -3.269716 1.051810 1.523763
v 3.269716 1.051811 1.523763
v 3.048569 1.051811 1.373117
v -3.269716 2.371427 0.761881
v 3.269716 2.371428 0.761881
v 3.048569 2.240965 0.686559
v -3.269716 2.371427 -0.761881
v 3.269716 2.371428 -0.761881
v 3.048569 2.240965 -0.686559
v -3.269716 1.051810 -1.373117
v -3.269716 -0.137344 0.686559
v -3.269716 2.240964 0.686559
v -3.269716 2.240964 -0.686559
v -3.269716 -0.137344 -0.686559
v -3.269716 1.051810 1.373117
vn -0.0000 -0.5000 -0.8660
vn -0.0000 -1.0000 -0.0000
vn -0.0000 -0.5000 0.8660
vn -0.0000 0.5000 0.8660
vn 1.0000 -0.0000 -0.0000
vn -0.0000 1.0000 -0.0000
vn -0.0000 0.5000 -0.8660
vn -1.0000 -0.0000 -0.0000
vt 0.594127 0.762366
vt 0.750000 0.490000
vt 0.250000 0.490000
vt 0.328655 0.952410
vt 0.325256 0.361600
vt 0.293592 0.612857
vt 0.957846 0.370000
vt 0.323602 0.927471
vt 0.457846 0.370000
vt 0.296696 0.513268
vt 0.017348 0.791926
vt 0.957846 0.130000
vt 0.298608 0.920266
vt 0.457846 0.130000
vt 0.296693 0.675472
vt 0.112874 0.553787
vt 0.032123 1.117857
vt 0.750000 0.010000
vt 0.277725 0.938900
vt 0.250000 0.010000
vt 0.296690 0.837678
vt 0.000111 0.394877
vt 0.313050 1.266916
vt 0.542154 0.130000
vt 0.042154 0.130000
vt 0.286188 0.959692
vt 0.296687 0.999886
vt 0.081349 0.217767
vt 0.243237 0.054336
vt 0.594127 1.100795
vt 0.542154 0.370000
vt 0.042154 0.370000
vt 0.308697 0.965645
vt 0.268525 0.221355
vt 0.750000 0.466273
vt 0.644521 0.351068
vt 0.937297 0.141864
vt 0.644521 0.675476
vt 0.562702 0.141864
vt 0.644521 0.999889
vt 0.601387 0.000111
vt 0.562702 0.358136
vt 0.626675 0.167130
vt 0.937297 0.358136
vt 0.644521 0.513271
vt 0.750000 0.033727
vt 0.644521 0.837682
s 0
f 1/1/1 2/4/1 5/8/1 4/6/1
f 4/6/2 5/8/2 8/13/2 7/11/2
f 7/11/3 8/13/3 11/19/3 10/17/3
f 10/17/4 11/19/4 14/26/4 13/23/4
f 8/14/5 5/9/5 2/3/5 17/32/5 14/25/5 11/20/5
f 13/23/6 14/26/6 17/33/6 16/30/6
f 16/30/7 17/33/7 2/4/7 1/1/7
f 19/35/8 1/2/8 4/7/8 7/12/8 10/18/8 24/46/8 20/37/8 23/44/8
f 24/46/8 10/18/8 13/24/8 16/31/8 1/2/8 19/35/8 22/42/8 21/39/8
f 23/45/4 6/10/4 3/5/4 19/36/4
f 20/38/6 9/15/6 6/10/6 23/45/6
f 12/21/7 9/15/7 20/38/7 24/47/7
f 21/40/1 15/27/1 12/21/1 24/47/1
f 18/34/8 3/5/8 6/10/8 9/16/8 12/22/8 15/28/8
f 22/43/2 18/34/2 15/29/2 21/41/2
f 19/36/3 3/5/3 18/34/3 22/43/3
