# Blender 3.4.1
# www.blender.org
mtllib untitled.mtl
o Cube
v -0.640367 -0.014850 0.640367
v -0.640367 1.265884 0.640367
v -0.640367 -0.014850 -0.640367
v -0.640367 1.265884 -0.640367
v 0.640367 -0.014850 0.640367
v 0.640367 1.265884 0.640367
v 0.640367 -0.014850 -0.640367
v 0.640367 1.265884 -0.640367
v -0.512294 1.265884 0.512294
v -0.512294 1.265884 -0.512294
v 0.512294 1.265884 -0.512294
v 0.512294 1.265884 0.512294
v -0.640367 0.113223 -0.512294
v -0.640367 0.113223 0.512294
v -0.640367 1.137810 0.512294
v -0.640367 1.137810 -0.512294
v -0.512294 0.113223 0.640367
v -0.512294 1.137810 0.640367
v 0.512294 1.137810 0.640367
v 0.512294 0.113223 0.640367
v 0.640367 1.137810 -0.512294
v 0.640367 0.113223 -0.512294
v 0.640367 0.113223 0.512294
v 0.640367 1.137810 0.512294
v -0.512294 1.137810 -0.640367
v -0.512294 0.113223 -0.640367
v 0.512294 0.113223 -0.640367
v 0.512294 1.137810 -0.640367
v -0.512294 -0.014850 -0.512294
v -0.512294 -0.014850 0.512294
v 0.512294 -0.014850 -0.512294
v 0.512294 -0.014850 0.512294
v -0.446737 1.183938 0.446737
v -0.446737 1.183938 -0.446737
v 0.446737 1.183938 -0.446737
v 0.446737 1.183938 0.446737
v -0.558421 0.178780 -0.446737
v -0.558421 0.178780 0.446737
v -0.558421 1.072253 0.446737
v -0.558421 1.072253 -0.446737
v -0.446737 0.178780 0.558421
v -0.446737 1.072253 0.558421
v 0.446737 1.072253 0.558421
v 0.446737 0.178780 0.558421
v 0.558421 1.072253 -0.446737
v 0.558421 0.178780 -0.446737
v 0.558421 0.178780 0.446737
v 0.558421 1.072253 0.446737
v -0.446737 1.072253 -0.558421
v -0.446737 0.178780 -0.558421
v 0.446737 0.178780 -0.558421
v 0.446737 1.072253 -0.558421
v -0.446737 0.067096 -0.446737
v -0.446737 0.067096 0.446737
v 0.446737 0.067096 -0.446737
v 0.446737 0.067096 0.446737
vn -1.0000 -0.0000 -0.0000
vn -0.0000 -0.0000 -1.0000
vn 1.0000 -0.0000 -0.0000
vn -0.0000 -0.0000 1.0000
vn -0.0000 -1.0000 -0.0000
vn -0.0000 1.0000 -0.0000
vn 0.6247 -0.0000 0.7809
vn -0.6247 -0.0000 -0.7809
vn 0.7809 -0.0000 0.6247
vn -0.0000 0.6247 0.7809
vn -0.6247 0.7809 -0.0000
vn 0.7809 0.6247 -0.0000
vn -0.7809 0.6247 -0.0000
vn -0.7809 -0.0000 0.6247
vn 0.7809 -0.0000 -0.6247
vn -0.6247 -0.7809 -0.0000
vn 0.6247 0.7809 -0.0000
vn 0.7809 -0.6247 -0.0000
vn -0.0000 0.6247 -0.7809
vn -0.0000 0.7809 0.6247
vn -0.0000 0.7809 -0.6247
vn -0.6247 -0.0000 0.7809
vn 0.6247 -0.7809 -0.0000
vn -0.0000 -0.6247 0.7809
vn -0.0000 -0.7809 0.6247
vn -0.0000 -0.7809 -0.6247
vn 0.6247 -0.0000 -0.7809
vn -0.7809 -0.6247 -0.0000
vn -0.7809 -0.0000 -0.6247
vn -0.0000 -0.6247 -0.7809
vt 0.852741 0.619895
vt 0.362615 0.620205
vt 0.484431 0.498263
vt 0.853024 0.498216
vt 0.361639 0.498307
vt 0.852741 0.497999
vt 0.238201 0.620203
vt 0.116307 0.620205
vt 0.362615 0.498310
vt 0.484613 0.498477
vt 0.852969 0.620367
vt 0.362718 0.620372
vt 0.362536 0.498263
vt 0.607154 0.498427
vt 0.484913 0.498681
vt 0.361639 0.620202
vt 0.238201 0.498308
vt 0.484613 0.620372
vt 0.607154 0.620322
vt 0.731129 0.498216
vt 0.731224 0.620273
vt 0.608312 0.498335
vt 0.239744 0.498307
vt 0.116308 0.498307
vt 0.238203 0.620205
vt 0.731074 0.620367
vt 0.731224 0.498377
vt 0.608312 0.620230
vt 0.730207 0.498335
vt 0.485258 0.498427
vt 0.606808 0.498681
vt 0.239744 0.620202
vt 0.116305 0.498308
vt 0.116308 0.620202
vt 0.730207 0.620230
vt 0.485258 0.620322
vt 0.238201 0.620203
vt 0.116307 0.620205
vt 0.934370 0.395455
vt 0.071215 0.395454
vt 0.238201 0.498308
vt 0.718581 0.395455
vt 0.116305 0.498308
vt 0.116308 0.620202
vt 0.502792 0.395454
vt 0.116308 0.498307
vt 0.238203 0.620205
vt 0.287004 0.395454
vt 0.362718 0.620372
vt 0.362536 0.498263
vt 0.398108 0.299801
vt 0.398103 0.160160
vt 0.398099 0.299804
vt 0.362615 0.620205
vt 0.484431 0.498263
vt 0.398108 0.160170
vt 0.362615 0.498310
vt 0.484613 0.498477
vt 0.258472 0.299791
vt 0.484613 0.620372
vt 0.258472 0.160160
vt 0.852741 0.619895
vt 0.853024 0.498216
vt 0.540784 0.159955
vt 0.852741 0.497999
vt 0.852969 0.620367
vt 0.401152 0.159958
vt 0.731074 0.620367
vt 0.731224 0.498377
vt 0.401152 0.299589
vt 0.731129 0.498216
vt 0.731224 0.620273
vt 0.540784 0.299587
vt 0.730207 0.620230
vt 0.542769 0.299600
vt 0.730207 0.498335
vt 0.682400 0.299600
vt 0.608312 0.498335
vt 0.682400 0.159969
vt 0.608312 0.620230
vt 0.542769 0.159969
vt 0.607154 0.620322
vt 0.686558 0.300067
vt 0.607154 0.498427
vt 0.484913 0.498681
vt 0.826189 0.300067
vt 0.826186 0.160435
vt 0.485258 0.498427
vt 0.606808 0.498681
vt 0.826186 0.300066
vt 0.826189 0.160436
vt 0.485258 0.620322
vt 0.686558 0.160436
vt 0.361639 0.620202
vt 0.257400 0.299810
vt 0.361639 0.498307
vt 0.257400 0.160178
vt 0.239744 0.620202
vt 0.117769 0.299810
vt 0.239744 0.498307
vt 0.117769 0.160178
vt 0.934370 0.395455
vt 0.471276 0.749977
vt 0.071215 0.395454
vt 0.718581 0.395455
vt 0.471276 0.873933
vt 0.595231 0.873933
vt 0.502792 0.395454
vt 0.595231 0.749977
vt 0.287004 0.395454
vt 0.398108 0.299801
vt 0.344117 0.751151
vt 0.398103 0.160160
vt 0.398099 0.299804
vt 0.398108 0.160170
vt 0.344117 0.873895
vt 0.221373 0.873895
vt 0.258472 0.299791
vt 0.221373 0.751151
vt 0.258472 0.160160
vt 0.850976 0.748766
vt 0.540784 0.159955
vt 0.725998 0.748766
vt 0.401152 0.159958
vt 0.725998 0.873744
vt 0.401152 0.299589
vt 0.850976 0.873744
vt 0.540784 0.299587
vt 0.097994 0.873559
vt 0.542769 0.299600
vt 0.219432 0.873559
vt 0.682400 0.299600
vt 0.219433 0.752121
vt 0.682400 0.159969
vt 0.097994 0.752121
vt 0.542769 0.159969
vt 0.346290 0.873877
vt 0.686558 0.300067
vt 0.468893 0.873877
vt 0.826189 0.300067
vt 0.826186 0.160435
vt 0.468893 0.751275
vt 0.826186 0.300066
vt 0.826189 0.160436
vt 0.346290 0.751275
vt 0.686558 0.160436
vt 0.724227 0.874226
vt 0.257400 0.299810
vt 0.724227 0.749247
vt 0.257400 0.160178
vt 0.599248 0.874226
vt 0.117769 0.299810
vt 0.599248 0.749247
vt 0.117769 0.160178
s 0
usemtl Material.001
f 4/18/1 3/12/1 13/49/1 16/60/1
f 4/19/2 8/36/2 28/92/2 25/82/2
f 8/35/3 6/28/3 24/80/3 21/74/3
f 2/6/4 1/1/4 17/62/4 18/65/4
f 5/23/5 1/5/5 30/96/5 32/100/5
f 8/33/6 4/17/6 10/41/6 11/43/6
f 22/77/7 21/75/7 45/130/7 46/132/7
f 6/24/6 8/34/6 11/44/6 12/46/6
f 4/17/6 2/7/6 9/37/6 10/41/6
f 2/8/6 6/25/6 12/47/6 9/38/6
f 14/53/8 15/59/8 39/118/8 38/114/8
f 1/2/1 2/9/1 15/57/1 14/54/1
f 2/10/1 4/18/1 16/60/1 15/58/1
f 3/13/1 1/3/1 14/55/1 13/50/1
f 18/67/9 17/64/9 41/122/9 42/124/9
f 1/4/4 5/20/4 20/71/4 17/63/4
f 6/26/4 2/11/4 18/66/4 19/68/4
f 5/21/4 6/27/4 19/69/4 20/72/4
f 11/45/10 10/42/10 34/105/10 35/108/10
f 7/29/3 8/35/3 21/74/3 22/76/3
f 6/28/3 5/22/3 23/78/3 24/80/3
f 5/22/3 7/29/3 22/76/3 23/78/3
f 13/51/11 14/56/11 38/115/11 37/111/11
f 3/14/2 4/19/2 25/82/2 26/84/2
f 8/36/2 7/30/2 27/88/2 28/92/2
f 7/31/2 3/15/2 26/85/2 27/89/2
f 10/42/12 9/39/12 33/102/12 34/105/12
f 3/16/5 7/32/5 31/98/5 29/94/5
f 1/5/5 3/16/5 29/94/5 30/96/5
f 7/32/5 5/23/5 32/100/5 31/98/5
f 35/107/6 34/106/6 33/103/6 36/109/6
f 38/116/1 39/117/1 40/119/1 37/112/1
f 44/127/4 43/125/4 42/123/4 41/121/4
f 46/131/3 45/129/3 48/135/3 47/133/3
f 50/139/2 49/137/2 52/145/2 51/142/2
f 53/147/5 55/151/5 56/153/5 54/149/5
f 12/48/13 11/45/13 35/108/13 36/110/13
f 20/73/14 19/70/14 43/126/14 44/128/14
f 26/86/15 25/83/15 49/138/15 50/140/15
f 15/59/16 16/61/16 40/120/16 39/118/16
f 23/79/17 22/77/17 46/132/17 47/134/17
f 30/97/18 29/95/18 53/148/18 54/150/18
f 9/40/19 12/48/19 36/110/19 33/104/19
f 17/64/20 20/73/20 44/128/20 41/122/20
f 27/90/21 26/87/21 50/141/21 51/143/21
f 16/61/22 13/52/22 37/113/22 40/120/22
f 21/75/23 24/81/23 48/136/23 45/130/23
f 29/95/24 31/99/24 55/152/24 53/148/24
f 19/70/25 18/67/25 42/124/25 43/126/25
f 25/83/26 28/93/26 52/146/26 49/138/26
f 24/81/27 23/79/27 47/134/27 48/136/27
f 31/99/28 32/101/28 56/154/28 55/152/28
f 28/93/29 27/91/29 51/144/29 52/146/29
f 32/101/30 30/97/30 54/150/30 56/154/30
