# Blender 3.4.1
# www.blender.org
mtllib Metroid_PowerDoor_280123.mtl
o DoorFrame
v 1.373405 0.959919 -0.067828
v 1.373405 0.959919 0.067828
v 0.686703 -0.229485 -0.067828
v 0.686703 -0.229485 0.067828
v -0.686703 -0.229485 -0.067828
v -0.686703 -0.229485 0.067828
v -1.373405 0.959919 -0.067828
v -1.373405 0.959919 0.067828
v -0.686703 2.149323 -0.067828
v -0.686703 2.149323 0.067828
v 0.686703 2.149323 -0.067828
v 0.686703 2.149323 0.067828
v 1.278936 0.959919 -0.063163
v 0.639468 -0.147672 -0.063163
v 0.639468 -0.147672 0.063163
v 1.278936 0.959919 0.063163
v -0.639468 -0.147672 -0.063163
v -0.639468 -0.147672 0.063163
v -1.278936 0.959919 -0.063163
v -1.278936 0.959919 0.063163
v -0.639468 2.067510 -0.063163
v -0.639468 2.067510 0.063163
v 0.639468 2.067510 -0.063163
v 0.639468 2.067510 0.063163
vn 0.8660 -0.5000 -0.0000
vn -0.0000 -1.0000 -0.0000
vn -0.8660 -0.5000 -0.0000
vn -0.8660 0.5000 -0.0000
vn -0.0000 0.0569 -0.9984
vn -0.0000 1.0000 -0.0000
vn 0.8660 0.5000 -0.0000
vn -0.0000 -0.0569 0.9984
vn 0.0493 -0.0285 0.9984
vn -0.0493 0.0285 0.9984
vn 0.0493 0.0285 0.9984
vn -0.0000 0.0569 0.9984
vn -0.0493 -0.0285 -0.9984
vn -0.0000 -0.0569 -0.9984
vn 0.0493 -0.0285 -0.9984
vn -0.0493 -0.0285 0.9984
vn -0.0493 0.0285 -0.9984
vn 0.0493 0.0285 -0.9984
vt -0.000000 0.500000
vt 1.000000 0.500000
vt 1.000000 1.000000
vt -0.000000 1.000000
vt 0.833333 0.500000
vt 0.833333 1.000000
vt 0.666667 0.500000
vt 0.666667 1.000000
vt 0.500000 0.500000
vt 0.500000 1.000000
vt 0.333333 0.500000
vt 0.333333 1.000000
vt 0.166667 0.500000
vt 0.166667 1.000000
vt -0.000000 0.500000
vt 1.000000 0.500000
vt 0.000000 0.000000
vt 0.833333 0.500000
vt 0.000000 0.000000
vt 0.833333 1.000000
vt 0.000000 0.000000
vt 1.000000 1.000000
vt -0.000000 1.000000
vt 0.000000 0.000000
vt 0.666667 0.500000
vt 0.000000 0.000000
vt 0.666667 1.000000
vt 0.000000 0.000000
vt 0.000000 0.000000
vt 0.500000 0.500000
vt 0.000000 0.000000
vt 0.500000 1.000000
vt 0.333333 0.500000
vt 0.000000 0.000000
vt 0.333333 1.000000
vt 0.000000 0.000000
vt 0.166667 0.500000
vt 0.000000 0.000000
vt 0.166667 1.000000
vt 0.000000 0.000000
s 0
f 1/2/1 2/3/1 4/6/1 3/5/1
f 3/5/2 4/6/2 6/8/2 5/7/2
f 5/7/3 6/8/3 8/10/3 7/9/3
f 7/9/4 8/10/4 10/12/4 9/11/4
f 3/5/5 5/7/5 17/25/5 14/18/5
f 9/11/6 10/12/6 12/14/6 11/13/6
f 11/13/7 12/14/7 2/4/7 1/1/7
f 12/14/8 10/12/8 22/35/8 24/39/8
f 17/26/7 19/29/7 20/31/7 18/28/7
f 19/29/1 21/34/1 22/36/1 20/31/1
f 10/12/9 8/10/9 20/32/9 22/35/9
f 4/6/10 2/3/10 16/22/10 15/20/10
f 8/10/11 6/8/11 18/27/11 20/32/11
f 6/8/12 4/6/12 15/20/12 18/27/12
f 11/13/13 1/1/13 13/15/13 23/37/13
f 9/11/14 11/13/14 23/37/14 21/33/14
f 7/9/15 9/11/15 21/33/15 19/30/15
f 2/4/16 12/14/16 24/39/16 16/23/16
f 1/2/17 3/5/17 14/18/17 13/16/17
f 5/7/18 7/9/18 19/30/18 17/25/18
f 21/34/2 23/38/2 24/40/2 22/36/2
f 23/38/3 13/17/3 16/24/3 24/40/3
f 13/17/4 14/19/4 15/21/4 16/24/4
f 14/19/6 17/26/6 18/28/6 15/21/6
o DoorTriangle
v 0.686700 -1.167336 0.047086
v -0.000042 0.058406 0.047086
v 0.686700 -1.167336 -0.047086
v -0.000042 0.058406 -0.047086
v -0.006083 -1.167351 -0.047086
v -0.006083 -1.167351 0.047086
v -0.686703 -1.167338 0.047086
v -0.686703 -1.167338 -0.047086
vn -0.0000 -0.0000 -1.0000
vn 0.8724 0.4888 -0.0000
vn -0.0000 -1.0000 -0.0000
vn -0.0000 -0.0000 1.0000
vn -0.8724 0.4887 -0.0000
vt 0.375000 0.750000
vt 0.625000 0.750000
vt 0.625000 0.875000
vt 0.375000 0.500000
vt 0.625000 0.500000
vt 0.375000 0.375000
vt 0.250000 0.500000
vt 0.250000 0.750000
vt 0.375000 0.875000
vt 0.375000 0.750000
vt 0.375000 0.500000
s 0
f 29/46/19 28/45/19 27/44/19
f 27/44/20 28/45/20 26/42/20 25/41/20
f 29/47/21 27/44/21 25/41/21 30/48/21
f 25/41/22 26/43/22 30/49/22
f 29/46/19 32/51/19 28/45/19
f 32/51/23 31/50/23 26/42/23 28/45/23
f 29/47/21 30/48/21 31/50/21 32/51/21
f 31/50/22 30/49/22 26/43/22
o DoorTriangle.001
v 2.155728 0.507818 0.047086
v 0.782284 0.544156 0.047086
v 2.155728 0.507818 -0.047086
v 0.782284 0.544156 -0.047086
v 1.814484 -0.083236 -0.047086
v 1.814484 -0.083236 0.047086
v 1.469025 -0.681584 0.047086
v 1.469025 -0.681584 -0.047086
vn -0.0000 -0.0000 -1.0000
vn 0.0264 0.9997 -0.0000
vn 0.8660 -0.5000 -0.0000
vn -0.0000 -0.0000 1.0000
vn -0.8724 -0.4888 -0.0000
vt 0.375000 0.750000
vt 0.625000 0.750000
vt 0.625000 0.875000
vt 0.375000 0.500000
vt 0.625000 0.500000
vt 0.375000 0.375000
vt 0.250000 0.500000
vt 0.250000 0.750000
vt 0.375000 0.875000
vt 0.375000 0.750000
vt 0.375000 0.500000
s 0
f 37/57/24 36/56/24 35/55/24
f 35/55/25 36/56/25 34/53/25 33/52/25
f 37/58/26 35/55/26 33/52/26 38/59/26
f 33/52/27 34/54/27 38/60/27
f 37/57/24 40/62/24 36/56/24
f 40/62/28 39/61/28 34/53/28 36/56/28
f 37/58/26 38/59/26 39/61/26 40/62/26
f 39/61/27 38/60/27 34/54/27
o DoorTriangle.002
v -0.686701 2.918853 0.047086
v -0.000042 1.765789 0.047086
v -0.686701 2.918853 -0.047086
v -0.000042 1.765789 -0.047087
v -0.006161 2.918852 -0.047086
v -0.006161 2.918852 0.047086
v 0.686701 2.918854 0.047086
v 0.686701 2.918854 -0.047086
vn -0.0000 -0.0000 -1.0000
vn -0.8592 -0.5117 -0.0000
vn -0.0000 1.0000 -0.0000
vn -0.0000 -0.0000 1.0000
vn 0.8592 -0.5117 -0.0000
vt 0.375000 0.750000
vt 0.625000 0.750000
vt 0.625000 0.875000
vt 0.375000 0.500000
vt 0.625000 0.500000
vt 0.375000 0.375000
vt 0.250000 0.500000
vt 0.250000 0.750000
vt 0.375000 0.875000
vt 0.375000 0.750000
vt 0.375000 0.500000
s 0
f 45/68/29 44/67/29 43/66/29
f 43/66/30 44/67/30 42/64/30 41/63/30
f 45/69/31 43/66/31 41/63/31 46/70/31
f 41/63/32 42/65/32 46/71/32
f 45/68/29 48/73/29 44/67/29
f 48/73/33 47/72/33 42/64/33 44/67/33
f 45/69/31 46/70/31 47/72/31 48/73/31
f 47/72/32 46/71/32 42/65/32
o DoorTriangle.003
v -1.452324 -0.671924 0.047086
v -0.765663 0.553818 0.047086
v -1.452324 -0.671924 -0.047086
v -0.765663 0.553818 -0.047086
v -1.798167 -0.072898 -0.047086
v -1.798167 -0.072898 0.047086
v -2.139026 0.517478 0.047086
v -2.139026 0.517478 -0.047086
vn -0.0000 -0.0000 -1.0000
vn 0.8724 -0.4887 -0.0000
vn -0.8660 -0.5000 -0.0000
vn -0.0000 -0.0000 1.0000
vn -0.0265 0.9997 -0.0000
vt 0.375000 0.750000
vt 0.625000 0.750000
vt 0.625000 0.875000
vt 0.375000 0.500000
vt 0.625000 0.500000
vt 0.375000 0.375000
vt 0.250000 0.500000
vt 0.250000 0.750000
vt 0.375000 0.875000
vt 0.375000 0.750000
vt 0.375000 0.500000
s 0
f 53/79/34 52/78/34 51/77/34
f 51/77/35 52/78/35 50/75/35 49/74/35
f 53/80/36 51/77/36 49/74/36 54/81/36
f 49/74/37 50/76/37 54/82/37
f 53/79/34 56/84/34 52/78/34
f 56/84/38 55/83/38 50/75/38 52/78/38
f 53/80/36 54/81/36 55/83/36 56/84/36
f 55/83/37 54/82/37 50/76/37
o DoorTriangle.004
v -2.109021 1.384281 0.047086
v -0.735659 1.420622 0.047086
v -2.109021 1.384281 -0.047086
v -0.735659 1.420622 -0.047086
v -1.761135 1.986840 -0.047086
v -1.761135 1.986840 0.047086
v -1.422319 2.573684 0.047086
v -1.422319 2.573684 -0.047086
vn -0.0000 -0.0000 -1.0000
vn 0.0265 -0.9997 -0.0000
vn -0.8660 0.5000 -0.0000
vn -0.0000 -0.0000 1.0000
vn 0.8592 0.5117 -0.0000
vt 0.375000 0.750000
vt 0.625000 0.750000
vt 0.625000 0.875000
vt 0.375000 0.500000
vt 0.625000 0.500000
vt 0.375000 0.375000
vt 0.250000 0.500000
vt 0.250000 0.750000
vt 0.375000 0.875000
vt 0.375000 0.750000
vt 0.375000 0.500000
s 0
f 61/90/39 60/89/39 59/88/39
f 59/88/40 60/89/40 58/86/40 57/85/40
f 61/91/41 59/88/41 57/85/41 62/92/41
f 57/85/42 58/87/42 62/93/42
f 61/90/39 64/95/39 60/89/39
f 64/95/43 63/94/43 58/86/43 60/89/43
f 61/91/41 62/92/41 63/94/41 64/95/41
f 63/94/42 62/93/42 58/87/42
o DoorTriangle.005
v 1.380491 2.543518 0.047086
v 0.693748 1.390458 0.047086
v 1.380491 2.543518 -0.047086
v 0.693748 1.390458 -0.047086
v 1.724116 1.948343 -0.047086
v 1.724116 1.948343 0.047086
v 2.067192 1.354119 0.047086
v 2.067192 1.354119 -0.047086
vn -0.0000 -0.0000 -1.0000
vn -0.8592 0.5117 -0.0000
vn 0.8660 0.5000 -0.0000
vn -0.0000 -0.0000 1.0000
vn -0.0264 -0.9997 -0.0000
vt 0.375000 0.750000
vt 0.625000 0.750000
vt 0.625000 0.875000
vt 0.375000 0.500000
vt 0.625000 0.500000
vt 0.375000 0.375000
vt 0.250000 0.500000
vt 0.250000 0.750000
vt 0.375000 0.875000
vt 0.375000 0.750000
vt 0.375000 0.500000
s 0
f 69/101/44 68/100/44 67/99/44
f 67/99/45 68/100/45 66/97/45 65/96/45
f 69/102/46 67/99/46 65/96/46 70/103/46
f 65/96/47 66/98/47 70/104/47
f 69/101/44 72/106/44 68/100/44
f 72/106/48 71/105/48 66/97/48 68/100/48
f 69/102/46 70/103/46 71/105/46 72/106/46
f 71/105/47 70/104/47 66/98/47
