# Blender 3.4.1
# www.blender.org
mtllib SquareCorridor.mtl
o Cube
v -1.337866 -0.068688 8.953405
v -1.337866 2.502437 8.953405
v -1.337866 -0.068688 -13.266626
v -1.337866 2.502437 -13.266626
v 1.337866 -0.068688 8.953405
v 1.337866 2.502437 8.953405
v 1.337866 -0.068688 -13.266626
v 1.337866 2.502437 -13.266626
v -1.246040 0.019548 -13.266626
v 1.246040 2.414201 -13.266626
v -1.246040 2.414201 -13.266626
v 1.246040 0.019548 -13.266626
v 1.246040 0.019548 8.953405
v -1.246040 2.414201 8.953405
v 1.246040 2.414201 8.953405
v -1.246040 0.019548 8.953405
v 1.246040 0.443202 4.901691
v 1.246040 0.443202 7.115430
v 1.246040 1.990546 4.901021
v 1.246040 1.990546 7.114768
v 1.309432 0.443202 4.901691
v 1.309432 0.443202 7.115430
v 1.309432 1.990546 4.901021
v 1.309432 1.990546 7.114768
v 1.246040 2.414201 -12.055000
v 1.246040 2.414201 -10.099502
v 1.246040 1.990546 -10.099313
v 1.246040 0.019548 -12.054850
v 1.246040 0.019548 -10.098955
v 1.246040 0.443202 -10.098888
v 1.293591 2.414201 -12.055000
v 1.293591 2.414201 -10.099502
v 1.293591 0.019548 -12.054850
v 1.293591 0.019548 -10.098955
v 1.246040 0.443202 -1.645945
v 1.246040 0.443202 3.929097
v 1.284259 0.443202 -1.645945
v 1.246040 1.990546 -1.646011
v 1.246040 1.990546 3.928675
v 1.284259 0.443202 3.929097
v 1.284259 1.990546 -1.646011
v 1.284259 1.990546 3.928675
v -1.246040 0.019548 -3.089246
v -1.246040 0.019548 4.146183
v -1.246040 2.414201 -3.089233
v -1.246040 2.414201 4.145994
v -1.293814 0.019548 -3.089246
v -1.293814 0.019548 4.146183
v -1.293814 2.414201 -3.089233
v -1.293814 2.414201 4.145994
vn -1.0000 -0.0000 -0.0000
vn -0.0000 -0.0000 -1.0000
vn 1.0000 -0.0000 -0.0000
vn -0.0000 -0.0000 1.0000
vn -0.0000 -1.0000 -0.0000
vn -0.0000 1.0000 -0.0000
vn -0.0000 -0.0004 -1.0000
vn -0.0000 0.0004 1.0000
vn -0.0022 -0.0002 -1.0000
vn -0.0000 0.0001 1.0000
vn -0.0000 -0.0003 -1.0000
vn -0.0000 -0.0001 -1.0000
vt 0.375000 0.000000
vt 0.375000 1.000000
vt 0.125000 0.750000
vt 0.625000 0.000000
vt 0.625000 1.000000
vt 0.875000 0.750000
vt 0.375000 0.250000
vt 0.125000 0.500000
vt 0.625000 0.250000
vt 0.875000 0.500000
vt 0.375000 0.750000
vt 0.625000 0.750000
vt 0.375000 0.500000
vt 0.625000 0.500000
vt 0.383580 0.258580
vt 0.125000 0.513065
vt 0.375000 0.236935
vt 0.616420 0.491420
vt 0.625000 0.513065
vt 0.616420 0.258580
vt 0.875000 0.513065
vt 0.625000 0.236935
vt 0.383580 0.491420
vt 0.375000 0.513065
vt 0.383580 0.758580
vt 0.375000 0.736935
vt 0.616420 0.991421
vt 0.625000 0.013065
vt 0.875000 0.736935
vt 0.616420 0.758580
vt 0.625000 0.736935
vt 0.383580 0.991420
vt 0.375000 0.013065
vt 0.125000 0.736935
vt 0.458333 0.690862
vt 0.458333 0.723671
vt 0.541667 0.690852
vt 0.541667 0.723662
vt 0.458333 0.690862
vt 0.458333 0.723671
vt 0.541667 0.690852
vt 0.541667 0.723662
vt 0.625000 0.525272
vt 0.625000 0.544974
vt 0.541667 0.544060
vt 0.375000 0.525274
vt 0.375000 0.544980
vt 0.458333 0.544065
vt 0.625000 0.525272
vt 0.625000 0.544974
vt 0.375000 0.525274
vt 0.375000 0.544980
vt 0.458333 0.626786
vt 0.458333 0.681345
vt 0.458333 0.626786
vt 0.541667 0.626783
vt 0.541667 0.681337
vt 0.458333 0.681345
vt 0.541667 0.626783
vt 0.541667 0.681337
vt 0.375000 0.134396
vt 0.125000 0.615604
vt 0.375000 0.061498
vt 0.125000 0.688502
vt 0.625000 0.134396
vt 0.875000 0.615604
vt 0.625000 0.061500
vt 0.875000 0.688500
vt 0.375000 0.134396
vt 0.125000 0.615604
vt 0.375000 0.061498
vt 0.125000 0.688502
vt 0.625000 0.134396
vt 0.875000 0.615604
vt 0.625000 0.061500
vt 0.875000 0.688500
s 0
f 1/1/1 2/4/1 4/9/1 3/7/1
f 11/20/2 4/9/2 8/14/2 7/13/2 12/23/2 10/18/2
f 12/23/2 7/13/2 3/7/2 4/9/2 11/20/2 9/15/2
f 7/13/3 8/14/3 6/12/3 5/11/3
f 5/11/4 6/12/4 2/5/4 1/2/4 16/32/4 14/27/4 15/30/4 13/25/4
f 16/32/4 1/2/4 5/11/4 13/25/4
f 3/8/5 7/13/5 5/11/5 1/3/5
f 8/14/6 4/10/6 2/6/6 6/12/6
f 16/33/3 44/63/3 46/67/3 14/28/3
f 13/26/6 29/47/6 28/46/6 12/24/6 9/16/6 43/62/6 44/64/6 16/34/6
f 11/21/5 10/19/5 25/43/5 26/44/5 15/31/5 14/29/5 46/68/5 45/66/5
f 40/58/1 42/60/1 41/59/1 37/55/1
f 22/40/1 24/42/1 23/41/1 21/39/1
f 18/36/7 20/38/7 24/42/7 22/40/7
f 17/35/1 19/37/1 39/57/1 36/54/1
f 19/37/8 17/35/8 21/39/8 23/41/8
f 20/38/5 19/37/5 23/41/5 24/42/5
f 17/35/6 18/36/6 22/40/6 21/39/6
f 30/48/9 27/45/9 26/44/9 32/50/9 34/52/9 29/47/9
f 28/46/1 25/43/1 10/19/1 12/24/1
f 34/52/1 32/50/1 31/49/1 33/51/1
f 26/44/5 25/43/5 31/49/5 32/50/5
f 28/46/10 33/51/10 31/49/10 25/43/10
f 28/46/6 29/47/6 34/52/6 33/51/6
f 35/53/1 30/48/1 29/47/1 13/26/1 15/31/1 26/44/1 27/45/1 38/56/1 39/57/1 19/37/1 20/38/1 18/36/1 17/35/1 36/54/1
f 38/56/4 35/53/4 37/55/4 41/59/4
f 35/53/1 38/56/1 27/45/1 30/48/1
f 35/53/6 36/54/6 40/58/6 37/55/6
f 36/54/11 39/57/11 42/60/11 40/58/11
f 39/57/5 38/56/5 41/59/5 42/60/5
f 50/75/3 48/71/3 47/69/3 49/73/3
f 46/67/12 44/63/12 48/71/12 50/75/12
f 45/65/3 43/61/3 9/17/3 11/22/3
f 43/61/4 45/65/4 49/73/4 47/69/4
f 45/66/5 46/68/5 50/76/5 49/74/5
f 44/64/6 43/62/6 47/70/6 48/72/6
